# xmcd
#
# Track frame offsets: 
#        150
#        19994
#        37472
#        80716
#        102273
#        120353
#        140618
#        159651
#        174266
#        200608
#        214572
#        238764
#        252206
#
# Disc length: 3624 seconds
#
# Revision: 1
# Processed by: cddbd v1.5.2PL0 Copyright (c) Steve Scherf et al.
# Submitted via: ExactAudioCopyFreeDBPlugin 1.0
#
DISCID=b70e260d
DTITLE=Jimmy LaFave - Depending On The Distance
DYEAR=2012
DGENRE=Country
TTITLE0=Clear Blue Sky
TTITLE1=Missing You
TTITLE2=Red River Shore
TTITLE3=Living in Your Light
TTITLE4=Vanished
TTITLE5=Land of Hope and Dreams
TTITLE6=It Just is Not Right
TTITLE7=Red Dirt Night
TTITLE8=I'll Remeber You
TTITLE9=Bring Back the Trains
TTITLE10=Tomorrow Is a Long Time
TTITLE11=Talk to Me
TTITLE12=A Place I have Left Behind
EXTD=
EXTT0=
EXTT1=
EXTT2=
EXTT3=
EXTT4=
EXTT5=
EXTT6=
EXTT7=
EXTT8=
EXTT9=
EXTT10=
EXTT11=
EXTT12=
PLAYORDER=
